<?xml version="1.0" encoding="utf-8"?>
<!-- Generator: Adobe Illustrator 24.2.3, SVG Export Plug-In . SVG Version: 6.00 Build 0)  -->
<svg version="1.1" id="Layer_1" xmlns="http://www.w3.org/2000/svg" xmlns:xlink="http://www.w3.org/1999/xlink" x="0px" y="0px"
	 viewBox="0 0 1000 1000" style="enable-background:new 0 0 1000 1000;" xml:space="preserve">
<style type="text/css">
	.st0{fill:#FFFFFF;}
	.st1{fill:#1D1F3F;}
	.st2{fill:#2961A5;}
</style>
<g>
	<rect class="st0" width="1000" height="1000"/>
	<g>
		<path class="st1" d="M825.9,601.36V491.34l-43.32-21.67v-38.48l-53.56,28.68v-29.72l-45.49-81.9l-38.22,37.49v-92.75l-62.68-54.7
			l-50.38,49.34l-47.53-46.18v-49.96l-97.38,99.37v87.5l-11.02-15.83c0,0-19.44,11.35-44.07,25.68l-49.65-30.17v58.93
			c-27.28,15.75-50.14,28.76-51.02,28.76c-0.68,0-0.95,14.01-0.99,33.79l-56.47-21.67v143.54h-39.22v14.67h39.22h192.55h2.86
			L500,495.59l130.49,120.45h2.87H825.9h39.22v-14.67H825.9z M612.99,368.47v211.45l-6.52-6.02V362.51L612.99,368.47z
			 M583.81,252.23l4.45,4.74l-41.19,38.68l-4.47-4.74L583.81,252.23z M470.03,227.41v18.25l-1.63,259.13L402,566.08V296.84
			L470.03,227.41z M365.64,379.25l19.13,27.47v175.26l-9.78,9.03V409.79l-17.84-25.63L365.64,379.25z M188.77,601.36V479.19
			l41.76,16.01v106.17H188.77z M241.95,601.36V499.59l9.39,3.6v98.18H241.95z M297.25,601.36V384.11l68.03,41.32v174.55l-1.51,1.39
			H297.25z M484.7,489.74V261.92l42.05,40.85l63.31,61.49l-1.78,192.86L500,475.62L484.7,489.74z M645.3,601.36v-195.1l34.75-34.06
			l34.29,61.73v33.78l-42.18,22.6v111.04H645.3z M686.83,601.36V499.11l27.51-14.74v116.99H686.83z M729.01,601.36V476.51
			l38.89-20.82v8.89l-32.37,17.87v118.92H729.01z M782.57,601.36V486.08l28.65,14.32v100.96H782.57z"/>
		<g>
			<rect x="471.08" y="558.19" class="st2" width="26.48" height="26.48"/>
			<rect x="502.45" y="558.19" class="st2" width="26.48" height="26.48"/>
			<rect x="471.08" y="589.56" class="st2" width="26.48" height="26.48"/>
			<rect x="502.45" y="589.56" class="st2" width="26.48" height="26.48"/>
		</g>
		<g>
			<path class="st2" d="M191.42,695.37c0,7.83-1.61,13.46-4.81,16.91c-3.21,3.45-7.71,5.17-13.5,5.17c-5.79,0-10.29-1.72-13.5-5.17
				c-3.21-3.44-4.81-9.08-4.81-16.91v-45.32h-19.02v46.02c0,12.05,3.29,21.33,9.86,27.82c6.57,6.5,15.69,9.75,27.35,9.75
				c11.66,0,20.78-3.25,27.35-9.75c6.57-6.5,9.86-15.77,9.86-27.82v-46.02h-18.78V695.37z"/>
			<polygon class="st2" points="317.27,699.92 276.41,650.06 260.68,650.06 260.68,732.24 279.47,732.24 279.47,682.36 
				320.44,732.24 336.05,732.24 336.05,650.06 317.27,650.06 			"/>
			<rect x="387.24" y="650.06" class="st2" width="19.02" height="82.18"/>
			<polygon class="st2" points="448.17,665.55 474.47,665.55 474.47,732.24 493.48,732.24 493.48,665.55 519.78,665.55 
				519.78,650.06 448.17,650.06 			"/>
			<polygon class="st2" points="580.59,697.96 618.75,697.96 618.75,683.17 580.59,683.17 580.59,665.32 623.8,665.32 623.8,650.06 
				561.69,650.06 561.69,732.24 625.32,732.24 625.32,716.98 580.59,716.98 			"/>
			<path class="st2" d="M693.65,672.13c2.35-2.35,5.12-4.15,8.33-5.4c3.21-1.25,6.73-1.88,10.57-1.88c4.07,0,7.82,0.8,11.27,2.41
				c3.44,1.61,6.57,4.01,9.39,7.22l12.21-11.27c-3.92-4.77-8.75-8.39-14.5-10.86c-5.75-2.46-12.19-3.7-19.31-3.7
				c-6.42,0-12.33,1.04-17.73,3.11c-5.4,2.07-10.12,5.03-14.15,8.86c-4.03,3.84-7.16,8.34-9.39,13.5
				c-2.23,5.17-3.35,10.84-3.35,17.02c0,6.18,1.12,11.86,3.35,17.02c2.23,5.17,5.34,9.67,9.33,13.5c3.99,3.84,8.71,6.79,14.15,8.86
				c5.44,2.07,11.33,3.11,17.67,3.11c7.2,0,13.68-1.25,19.43-3.76c5.75-2.5,10.58-6.14,14.5-10.92l-12.21-11.27
				c-2.82,3.29-5.95,5.73-9.39,7.34c-3.45,1.61-7.2,2.41-11.27,2.41c-3.84,0-7.36-0.63-10.57-1.88c-3.21-1.25-5.99-3.05-8.33-5.4
				c-2.35-2.35-4.17-5.13-5.46-8.34c-1.29-3.21-1.94-6.77-1.94-10.68c0-3.91,0.64-7.47,1.94-10.68
				C689.48,677.26,691.3,674.48,693.65,672.13z"/>
			<polygon class="st2" points="845.21,650.06 845.21,682.46 807.88,682.46 807.88,650.06 788.86,650.06 788.86,732.24 
				807.88,732.24 807.88,698.54 845.21,698.54 845.21,732.24 864.23,732.24 864.23,650.06 			"/>
		</g>
		<g>
			<path class="st1" d="M336.96,787.13c-0.47-0.22-0.96-0.4-1.47-0.56c1.57-0.83,2.85-1.97,3.81-3.43c1.02-1.55,1.53-3.41,1.53-5.61
				c0-3.25-1.29-5.84-3.87-7.78c-2.58-1.94-6.34-2.91-11.27-2.91h-19.25v41.09h20.43c5.32,0,9.33-0.98,12.03-2.93
				c2.7-1.96,4.05-4.7,4.05-8.22c0-2.39-0.54-4.38-1.61-5.99C340.26,789.19,338.8,787.97,336.96,787.13z M324.87,772.83
				c2.66,0,4.71,0.47,6.13,1.41c1.43,0.94,2.14,2.37,2.14,4.28c0,1.88-0.71,3.29-2.14,4.23c-1.43,0.94-3.47,1.41-6.13,1.41h-10.8
				v-11.33H324.87z M332.97,800.54c-1.53,0.94-3.72,1.41-6.57,1.41h-12.33v-11.86h12.33c2.86,0,5.05,0.48,6.57,1.44
				c1.53,0.96,2.29,2.46,2.29,4.49C335.26,798.09,334.5,799.6,332.97,800.54z"/>
			<path class="st1" d="M390.97,789.74c0,4.23-0.9,7.3-2.7,9.22c-1.8,1.92-4.36,2.88-7.69,2.88c-3.33,0-5.9-0.96-7.72-2.88
				c-1.82-1.92-2.73-4.99-2.73-9.22v-22.89h-7.63v23.19c0,5.99,1.59,10.57,4.78,13.74c3.19,3.17,7.6,4.75,13.24,4.75
				c5.6,0,9.99-1.59,13.18-4.75c3.19-3.17,4.78-7.75,4.78-13.74v-23.19h-7.51V789.74z"/>
			<rect x="420.9" y="766.84" class="st1" width="7.63" height="41.09"/>
			<polygon class="st1" points="459,766.84 451.37,766.84 451.37,807.94 480.48,807.94 480.48,801.48 459,801.48 			"/>
			<path class="st1" d="M527.97,769.43c-3.37-1.72-7.28-2.58-11.74-2.58h-17.96v41.09h17.96c4.46,0,8.37-0.86,11.74-2.58
				c3.36-1.72,5.99-4.12,7.87-7.19c1.88-3.07,2.82-6.66,2.82-10.77c0-4.15-0.94-7.75-2.82-10.8
				C533.96,773.54,531.34,771.15,527.97,769.43z M529.11,794.79c-1.23,2.11-2.98,3.76-5.25,4.93c-2.27,1.17-4.93,1.76-7.98,1.76
				h-9.98V773.3h9.98c3.05,0,5.71,0.59,7.98,1.76c2.27,1.17,4.02,2.81,5.25,4.9c1.23,2.09,1.85,4.57,1.85,7.43
				C530.96,790.21,530.35,792.67,529.11,794.79z"/>
			<polygon class="st1" points="566.12,790.21 585.96,790.21 585.96,783.93 566.12,783.93 566.12,773.24 588.49,773.24 
				588.49,766.84 558.49,766.84 558.49,807.94 589.31,807.94 589.31,801.54 566.12,801.54 			"/>
			<path class="st1" d="M635.83,794.23c2.6-1.15,4.61-2.82,6.02-4.99c1.41-2.17,2.11-4.76,2.11-7.78c0-4.58-1.56-8.16-4.67-10.74
				c-3.11-2.58-7.41-3.87-12.89-3.87h-16.85v41.09h7.63v-11.97h9.27c0.55,0,1.06-0.04,1.59-0.07l8.39,12.04h8.22l-9.45-13.48
				C635.42,794.38,635.64,794.31,635.83,794.23z M633.72,775.41c1.7,1.41,2.55,3.43,2.55,6.05c0,2.58-0.85,4.6-2.55,6.05
				c-1.7,1.45-4.24,2.17-7.6,2.17h-8.92V773.3h8.92C629.48,773.3,632.01,774.01,633.72,775.41z"/>
			<path class="st1" d="M692.24,790.97c-0.88-1.41-2.04-2.52-3.46-3.35c-1.43-0.82-3.01-1.49-4.75-2c-1.74-0.51-3.49-0.97-5.25-1.38
				s-3.36-0.83-4.78-1.26c-1.43-0.43-2.58-1.03-3.46-1.79c-0.88-0.76-1.32-1.77-1.32-3.02c0-1.06,0.3-2,0.91-2.82
				c0.61-0.82,1.56-1.49,2.88-2c1.31-0.51,3.02-0.76,5.14-0.76c1.8,0,3.68,0.26,5.64,0.79c1.96,0.53,3.85,1.34,5.69,2.43l2.41-5.93
				c-1.8-1.17-3.91-2.07-6.34-2.7c-2.43-0.62-4.87-0.94-7.34-0.94c-3.76,0-6.86,0.56-9.3,1.67c-2.45,1.12-4.27,2.6-5.46,4.46
				c-1.19,1.86-1.79,3.9-1.79,6.13c0,2.19,0.45,3.99,1.35,5.4c0.9,1.41,2.06,2.53,3.49,3.37c1.43,0.84,3.01,1.53,4.75,2.06
				c1.74,0.53,3.48,0.99,5.22,1.38c1.74,0.39,3.33,0.81,4.75,1.26c1.43,0.45,2.59,1.06,3.49,1.82c0.9,0.76,1.35,1.77,1.35,3.02
				c0,1.02-0.31,1.93-0.94,2.73c-0.63,0.8-1.61,1.44-2.94,1.91s-3.07,0.7-5.22,0.7c-2.54,0-5.03-0.43-7.45-1.29
				c-2.43-0.86-4.46-1.94-6.11-3.23l-2.64,5.93c1.72,1.45,4.05,2.63,6.99,3.55c2.94,0.92,6.01,1.38,9.22,1.38
				c3.76,0,6.87-0.56,9.33-1.67c2.47-1.11,4.29-2.6,5.49-4.46c1.19-1.86,1.79-3.88,1.79-6.07
				C693.56,794.16,693.12,792.38,692.24,790.97z"/>
		</g>
	</g>
</g>
</svg>
